<?xml version="1.0" encoding="UTF-8" standalone="no" ?>
<!DOCTYPE svg PUBLIC "-//W3C//DTD SVG 1.1//EN" "http://www.w3.org/Graphics/SVG/1.1/DTD/svg11.dtd">
<svg xmlns="http://www.w3.org/2000/svg" xmlns:xlink="http://www.w3.org/1999/xlink" version="1.1" width="350" height="350" viewBox="0 0 350 350" xml:space="preserve">
<desc>Created with Fabric.js 1.7.22</desc>
<defs>
</defs>
<g id="icon" style="stroke: none; stroke-width: 1; stroke-dasharray: none; stroke-linecap: butt; stroke-linejoin: miter; stroke-miterlimit: 10; fill: none; fill-rule: nonzero; opacity: 1;" transform="translate(-1.9444444444444287 -1.9444444444444287) scale(3.89 3.89)" >
	<path d="M 81.004 44.328 H 8.996 c -1.742 0 -3.155 -1.412 -3.155 -3.155 v 0 c 0 -1.742 1.412 -3.155 3.155 -3.155 h 72.008 c 1.742 0 3.155 1.412 3.155 3.155 v 0 C 84.159 42.916 82.746 44.328 81.004 44.328 z" style="stroke: none; stroke-width: 1; stroke-dasharray: none; stroke-linecap: butt; stroke-linejoin: miter; stroke-miterlimit: 10; fill: rgb(185,185,185); fill-rule: nonzero; opacity: 1;" transform=" matrix(1 0 0 1 0 0) " stroke-linecap="round" />
	<path d="M 41.283 4.924 C 41.283 2.871 42.947 1 45 1 s 3.717 1.871 3.717 3.924" style="stroke: none; stroke-width: 1; stroke-dasharray: none; stroke-linecap: butt; stroke-linejoin: miter; stroke-miterlimit: 10; fill: rgb(185,185,185); fill-rule: nonzero; opacity: 1;" transform=" matrix(1 0 0 1 0 0) " stroke-linecap="round" />
	<path d="M 48.296 67.284 l -3.553 3.036 c -0.594 0.507 -1.245 0.943 -1.94 1.299 l -7.7 3.943 c -0.88 0.451 -1.709 0.997 -2.47 1.628 l -3.405 2.825 l -6.596 -7.95 l 1.851 -1.457 c 0.405 -0.331 0.67 -0.804 0.753 -1.32 c 0.659 -4.081 1.627 -7.316 4.539 -11.174 c 2.334 -3.019 3.691 -6.925 4.496 -11.333 c 0.192 -1.048 1.098 -1.816 2.164 -1.828 h 0 c 1.239 -0.014 2.257 0.991 2.253 2.23 c -0.016 4.811 -0.56 9.084 -2.025 12.42 c 5.894 0.293 12.638 -7.508 18.196 -14.079 c 0.814 -0.963 2.217 -1.164 3.271 -0.471 h 0 c 1.064 0.699 1.432 2.087 0.853 3.221 l -8.277 15.954 C 50.11 65.395 49.291 66.433 48.296 67.284 z" style="stroke: none; stroke-width: 1; stroke-dasharray: none; stroke-linecap: butt; stroke-linejoin: miter; stroke-miterlimit: 10; fill: rgb(255,206,191); fill-rule: nonzero; opacity: 1;" transform=" matrix(1 0 0 1 0 0) " stroke-linecap="round" />
	<rect x="18.13" y="70.4" rx="0" ry="0" width="9.12" height="17.74" style="stroke: none; stroke-width: 1; stroke-dasharray: none; stroke-linecap: butt; stroke-linejoin: miter; stroke-miterlimit: 10; fill: rgb(72,126,167); fill-rule: nonzero; opacity: 1;" transform=" matrix(0.7696 -0.6385 0.6385 0.7696 -45.3878 32.748) "/>
	<path d="M 12.046 37.67 C 12.046 19.47 26.8 4.717 45 4.717 S 77.954 19.47 77.954 37.67" style="stroke: none; stroke-width: 1; stroke-dasharray: none; stroke-linecap: butt; stroke-linejoin: miter; stroke-miterlimit: 10; fill: rgb(239,237,239); fill-rule: nonzero; opacity: 1;" transform=" matrix(1 0 0 1 0 0) " stroke-linecap="round" />
	<path d="M 50.657 19.578 C 49.36 18.112 46.903 17.93 45 19.802 c -1.903 -1.871 -4.36 -1.69 -5.657 -0.224 c -1.38 1.559 -0.8 4.469 1.016 6.794 c 0.921 1.179 3.196 3.098 4.641 3.904 c 1.445 -0.806 3.72 -2.726 4.641 -3.904 C 51.458 24.047 52.037 21.137 50.657 19.578 z" style="stroke: none; stroke-width: 1; stroke-dasharray: none; stroke-linecap: butt; stroke-linejoin: miter; stroke-miterlimit: 10; fill: rgb(254,147,211); fill-rule: nonzero; opacity: 1;" transform=" matrix(1 0 0 1 0 0) " stroke-linecap="round" />
	<path d="M 81.004 45.328 H 8.996 c -2.291 0 -4.155 -1.864 -4.155 -4.155 s 1.864 -4.155 4.155 -4.155 h 72.008 c 2.291 0 4.155 1.864 4.155 4.155 S 83.295 45.328 81.004 45.328 z M 8.996 39.019 c -1.188 0 -2.155 0.967 -2.155 2.155 s 0.967 2.155 2.155 2.155 h 72.008 c 1.188 0 2.155 -0.967 2.155 -2.155 s -0.967 -2.155 -2.155 -2.155 H 8.996 z" style="stroke: none; stroke-width: 1; stroke-dasharray: none; stroke-linecap: butt; stroke-linejoin: miter; stroke-miterlimit: 10; fill: rgb(63,63,63); fill-rule: nonzero; opacity: 1;" transform=" matrix(1 0 0 1 0 0) " stroke-linecap="round" />
	<path d="M 77.954 38.67 c -0.553 0 -1 -0.448 -1 -1 c 0 -17.62 -14.335 -31.954 -31.954 -31.954 S 13.046 20.051 13.046 37.67 c 0 0.552 -0.448 1 -1 1 s -1 -0.448 -1 -1 C 11.046 18.948 26.278 3.716 45 3.716 c 18.723 0 33.954 15.232 33.954 33.954 C 78.954 38.223 78.507 38.67 77.954 38.67 z" style="stroke: none; stroke-width: 1; stroke-dasharray: none; stroke-linecap: butt; stroke-linejoin: miter; stroke-miterlimit: 10; fill: rgb(63,63,63); fill-rule: nonzero; opacity: 1;" transform=" matrix(1 0 0 1 0 0) " stroke-linecap="round" />
	<path d="M 18.399 32.489 c -0.075 0 -0.15 -0.008 -0.227 -0.026 c -0.538 -0.125 -0.873 -0.662 -0.749 -1.2 c 2.177 -9.407 8.91 -16.973 18.01 -20.241 c 0.52 -0.188 1.092 0.083 1.279 0.604 c 0.187 0.52 -0.083 1.092 -0.604 1.279 c -8.458 3.036 -14.715 10.068 -16.738 18.809 C 19.266 32.177 18.854 32.489 18.399 32.489 z" style="stroke: none; stroke-width: 1; stroke-dasharray: none; stroke-linecap: butt; stroke-linejoin: miter; stroke-miterlimit: 10; fill: rgb(63,63,63); fill-rule: nonzero; opacity: 1;" transform=" matrix(1 0 0 1 0 0) " stroke-linecap="round" />
	<path d="M 48.717 5.924 c -0.553 0 -1 -0.448 -1 -1 C 47.717 3.366 46.447 2 45 2 c -1.447 0 -2.716 1.366 -2.716 2.924 c 0 0.552 -0.448 1 -1 1 s -1 -0.448 -1 -1 C 40.284 2.255 42.443 0 45 0 s 4.717 2.255 4.717 4.924 C 49.717 5.476 49.27 5.924 48.717 5.924 z" style="stroke: none; stroke-width: 1; stroke-dasharray: none; stroke-linecap: butt; stroke-linejoin: miter; stroke-miterlimit: 10; fill: rgb(63,63,63); fill-rule: nonzero; opacity: 1;" transform=" matrix(1 0 0 1 0 0) " stroke-linecap="round" />
	<path d="M 29.228 81.016 c -0.031 0 -0.062 -0.001 -0.093 -0.004 c -0.264 -0.025 -0.507 -0.153 -0.677 -0.357 l -6.596 -7.949 c -0.172 -0.208 -0.253 -0.476 -0.225 -0.744 c 0.029 -0.269 0.164 -0.514 0.376 -0.681 l 1.851 -1.457 c 0.198 -0.161 0.339 -0.412 0.385 -0.693 c 0.679 -4.203 1.706 -7.613 4.728 -11.617 c 2.044 -2.646 3.452 -6.211 4.311 -10.91 c 0.277 -1.517 1.596 -2.631 3.137 -2.648 c 0.827 -0.01 1.69 0.322 2.31 0.937 c 0.618 0.613 0.958 1.428 0.955 2.296 c -0.015 4.617 -0.516 8.339 -1.526 11.312 c 5.25 -0.987 11.363 -8.216 15.933 -13.62 c 1.139 -1.344 3.108 -1.631 4.584 -0.661 c 1.493 0.981 2.007 2.92 1.194 4.511 l -8.28 15.961 c -0.655 1.282 -1.547 2.412 -2.647 3.354 c 0 0 -0.001 0 -0.001 0.001 l -3.553 3.036 c -0.655 0.559 -1.373 1.039 -2.134 1.429 l -7.699 3.942 c -0.814 0.417 -1.583 0.924 -2.287 1.508 l -3.405 2.825 C 29.687 80.935 29.46 81.016 29.228 81.016 z M 24.057 72.218 l 5.302 6.39 l 2.635 -2.187 c 0.816 -0.678 1.709 -1.266 2.653 -1.749 l 7.699 -3.942 c 0.624 -0.319 1.211 -0.713 1.747 -1.17 l 3.553 -3.036 c 0.9 -0.771 1.631 -1.696 2.169 -2.75 l 8.28 -15.961 c 0.345 -0.674 0.125 -1.504 -0.514 -1.923 c -0.631 -0.415 -1.473 -0.293 -1.959 0.281 c -5.267 6.228 -12.505 14.739 -19.009 14.433 c -0.329 -0.017 -0.628 -0.193 -0.801 -0.474 c -0.173 -0.279 -0.197 -0.626 -0.065 -0.928 c 1.289 -2.936 1.924 -6.867 1.941 -12.021 c 0.001 -0.328 -0.128 -0.637 -0.362 -0.87 c -0.236 -0.234 -0.575 -0.376 -0.879 -0.356 c -0.585 0.007 -1.087 0.431 -1.192 1.008 c -0.917 5.021 -2.451 8.869 -4.689 11.765 c -2.778 3.682 -3.697 6.72 -4.343 10.722 c -0.124 0.765 -0.517 1.452 -1.107 1.936 L 24.057 72.218 z M 48.296 67.284 h 0.01 H 48.296 z" style="stroke: none; stroke-width: 1; stroke-dasharray: none; stroke-linecap: butt; stroke-linejoin: miter; stroke-miterlimit: 10; fill: rgb(63,63,63); fill-rule: nonzero; opacity: 1;" transform=" matrix(1 0 0 1 0 0) " stroke-linecap="round" />
	<path d="M 24.838 90 c -0.287 0 -0.572 -0.123 -0.77 -0.361 l -11.326 -13.65 c -0.169 -0.204 -0.251 -0.467 -0.226 -0.731 c 0.024 -0.264 0.153 -0.508 0.357 -0.677 l 7.015 -5.82 c 0.426 -0.354 1.056 -0.293 1.408 0.131 l 11.326 13.65 c 0.169 0.204 0.251 0.467 0.226 0.731 c -0.024 0.264 -0.153 0.508 -0.357 0.677 l -7.015 5.82 C 25.29 89.925 25.063 90 24.838 90 z M 14.92 75.48 l 10.048 12.111 l 5.476 -4.543 L 20.396 70.938 L 14.92 75.48 z" style="stroke: none; stroke-width: 1; stroke-dasharray: none; stroke-linecap: butt; stroke-linejoin: miter; stroke-miterlimit: 10; fill: rgb(63,63,63); fill-rule: nonzero; opacity: 1;" transform=" matrix(1 0 0 1 0 0) " stroke-linecap="round" />
	<path d="M 25.751 83.962 c -0.287 0 -0.572 -0.123 -0.77 -0.361 l -0.708 -0.854 c -0.353 -0.425 -0.294 -1.056 0.131 -1.408 c 0.424 -0.353 1.055 -0.294 1.408 0.131 l 0.708 0.854 c 0.353 0.425 0.294 1.056 -0.131 1.408 C 26.203 83.887 25.976 83.962 25.751 83.962 z" style="stroke: none; stroke-width: 1; stroke-dasharray: none; stroke-linecap: butt; stroke-linejoin: miter; stroke-miterlimit: 10; fill: rgb(63,63,63); fill-rule: nonzero; opacity: 1;" transform=" matrix(1 0 0 1 0 0) " stroke-linecap="round" />
	<path d="M 45 31.277 c -0.168 0 -0.336 -0.042 -0.487 -0.127 c -1.54 -0.859 -3.941 -2.882 -4.941 -4.162 c -2.243 -2.87 -2.645 -6.19 -0.977 -8.073 c 0.803 -0.907 1.929 -1.431 3.169 -1.474 c 1.13 -0.035 2.253 0.33 3.236 1.05 c 0.983 -0.721 2.113 -1.078 3.236 -1.05 c 1.241 0.043 2.366 0.566 3.17 1.474 c 1.667 1.884 1.265 5.203 -0.978 8.073 c -1.001 1.281 -3.402 3.304 -4.941 4.163 C 45.336 31.235 45.168 31.277 45 31.277 z M 41.925 19.438 c -0.031 0 -0.062 0 -0.093 0.001 c -0.687 0.023 -1.305 0.308 -1.741 0.801 c -0.985 1.113 -0.531 3.484 1.056 5.516 c 0.743 0.952 2.542 2.5 3.853 3.352 c 1.311 -0.851 3.109 -2.399 3.853 -3.352 c 1.588 -2.031 2.041 -4.402 1.056 -5.516 l 0 0 c -0.436 -0.492 -1.054 -0.776 -1.741 -0.8 c -0.858 -0.035 -1.732 0.353 -2.466 1.075 c -0.389 0.383 -1.014 0.383 -1.402 0 C 43.591 19.818 42.751 19.438 41.925 19.438 z" style="stroke: none; stroke-width: 1; stroke-dasharray: none; stroke-linecap: butt; stroke-linejoin: miter; stroke-miterlimit: 10; fill: rgb(63,63,63); fill-rule: nonzero; opacity: 1;" transform=" matrix(1 0 0 1 0 0) " stroke-linecap="round" />
</g>
</svg>