<svg xmlns="http://www.w3.org/2000/svg" width="53.8935" height="54.6579" viewBox="0 0 53.8935 54.6579"><defs><style>.cls-1{fill:#6c757d;}.cls-2{fill:#ccb1a8;}.cls-3{fill:#5a3e33;}</style></defs><g id="Layer_3" data-name="Layer 3"><path class="cls-1" d="M10.3426,46.9023s1.0112,3.4691,4.1957-.2545c0,0,4.9291-2.4548,7.3081.7172,0,0,3.1423-3.067,6.4878-.8991a5.4287,5.4287,0,0,1,2.6485,1.9055s2.0649.8443,2.4119-1.0327c0,0,.1883-.2909.1883.1849,0,0,.6047,1.6769-3.8213,3.8519a10.6544,10.6544,0,0,1-6.9636.1132l-.6344-.3172s-.3172-.3173-.9516.1586c0,0-4.28,1.4344-7.4534-.0758,0,0-3.3388-1.2082-3.811-3.9762C9.9476,47.2781,9.941,46.44,10.3426,46.9023Z"/><path class="cls-1" d="M21.5513,54.6579a28.3664,28.3664,0,0,1-3.8652-.2379A19.1393,19.1393,0,0,1,6.1726,48.8989a15.0991,15.0991,0,0,1-3.1-4.4507C-.377,37.3924-.0154,28.9713.0345,28.0759a.3393.3393,0,0,1-.0022-.2894c.112-.2485.3206-.7111,7.313-1.0958,3.3888-.1864,6.77-.26,6.8038-.2611,13.3233-.155,24.3666.3009,24.7479.317,2.0754-.0728,3.4978.2467,4.2273.9507a1.3291,1.3291,0,0,1,.45.8539,13.1317,13.1317,0,0,1,5.4616-1.487l.02-.001.02.0026c5.2428.6553,4.8118,6.0712,4.8068,6.1258l-.0032.0358-.0137.0333c-2.1678,5.2647-7.273,8.6079-7.5779,8.8038a39.394,39.394,0,0,0-6.09,6.1552l-.0231.0315-.032.0224a3.1178,3.1178,0,0,1-2.6241.7095,32.9622,32.9622,0,0,1-4.3728,3.1086A24.7669,24.7669,0,0,1,21.5513,54.6579ZM.5194,27.9523l-.0056.08c-.0063.0883-.5866,8.9063,2.99,16.2146l.0074.0168a14.87,14.87,0,0,0,3.0182,4.3193A18.68,18.68,0,0,0,17.7531,53.949c.0919.0141,8.6493,1.293,15.1605-2.2725a32.4375,32.4375,0,0,0,4.4-3.144l.12-.1028.1413.0706c.0318.0148.8516.38,2.264-.5951a40.3652,40.3652,0,0,1,6.1573-6.2169l.025-.018c.0521-.0327,5.2176-3.32,7.3905-8.5564.0344-.4812.23-4.9842-4.3739-5.5734a12.3881,12.3881,0,0,0-5.407,1.543l-.0611.0423h-.0743c-.1372,0-.3965-.1161-.3965-.5552-.0006-.01-.1118-1.4934-4.1945-1.3482l-.0093,0-.0094,0c-.1109-.0047-11.2525-.4737-24.7289-.317C7.9994,27.0378,1.3677,27.4612.5194,27.9523Z"/><path class="cls-1" d="M41.0005,43.7307a.3017.3017,0,0,1-.1507-.04c-.2358-.1335-.1536-.4625-.1226-.5863l.0062-.021a46.12,46.12,0,0,0,2.2675-10.91l.0034-.069.04-.0565c.0681-.0965,1.6947-2.3679,3.8935-2.6979a3.5834,3.5834,0,0,1,2.7923.7886,3.087,3.087,0,0,1,1.2349,2.1328c.1492,1.3367-.5453,2.8153-2.064,4.3947-.2057.2186-5.09,5.3961-7.4791,6.8444A.6724.6724,0,0,1,41.0005,43.7307Zm2.4719-11.4625a46.2831,46.2831,0,0,1-2.229,10.7929c2.361-1.4744,7.2629-6.67,7.3128-6.7234,1.4144-1.471,2.0654-2.8181,1.9368-4.0058a2.6483,2.6483,0,0,0-1.0339-1.8026l-.0139-.01a3.1271,3.1271,0,0,0-2.4368-.6993A6.3991,6.3991,0,0,0,43.4724,32.2682Z"/><path class="cls-1" d="M36.3682,35.1534a.1586.1586,0,0,1-.0319-.3139l1.021-.2109a.1586.1586,0,1,1,.0642.3107l-1.021.2109A.1615.1615,0,0,1,36.3682,35.1534Z"/><path class="cls-1" d="M36.3576,36.0091a.1586.1586,0,0,1-.0028-.3172l1.0424-.019a.1627.1627,0,0,1,.1615.1557.1587.1587,0,0,1-.1557.1615l-1.0424.019Z"/><path class="cls-1" d="M36.7292,38.4116a.159.159,0,0,1-.0582-.0111l-.97-.3831a.1587.1587,0,0,1,.1166-.2951l.97.3831a.1587.1587,0,0,1-.0584.3062Z"/><path class="cls-1" d="M37.0464,37.3014a.159.159,0,0,1-.0582-.0111l-.97-.3831a.1587.1587,0,0,1,.1166-.2951l.97.3831a.1587.1587,0,0,1-.0584.3062Z"/><path class="cls-1" d="M34.6628,40.8509a.1583.1583,0,0,1-.1249-.0608l-.6429-.8208a.1586.1586,0,0,1,.25-.1956l.6429.8207a.1587.1587,0,0,1-.1248.2565Z"/><path class="cls-1" d="M35.4558,40.375a.1582.1582,0,0,1-.1249-.0607l-.6428-.8208a.1586.1586,0,1,1,.25-.1956l.6429.8207a.1585.1585,0,0,1-.1248.2564Z"/><path class="cls-1" d="M33.7414,41.9725a.1588.1588,0,0,1-.1547-.124L33.24,40.2941a.1586.1586,0,0,1,.31-.0691l.347,1.5544a.1586.1586,0,0,1-.155.1931Z"/><path class="cls-1" d="M36.6254,39.55a.1586.1586,0,0,1-.0829-.0234l-1.3569-.8339a.1586.1586,0,1,1,.1661-.27l1.3568.8339a.1586.1586,0,0,1-.0831.2937Z"/><path class="cls-1" d="M32.85,42.1484a.1586.1586,0,0,1-.1576-.142l-.1508-1.43a.1586.1586,0,1,1,.3155-.0333l.1508,1.43a.1587.1587,0,0,1-.1411.1744Z"/><path class="cls-1" d="M31.5859,42.148l-.0176-.0009a.1588.1588,0,0,1-.14-.1751l.1583-1.43a.1606.1606,0,0,1,.1751-.14.1588.1588,0,0,1,.14.1751l-.1583,1.4295A.1587.1587,0,0,1,31.5859,42.148Z"/><path class="cls-1" d="M30.6343,42.148l-.0176-.0009a.1587.1587,0,0,1-.14-.1751l.1583-1.43a.1609.1609,0,0,1,.1751-.14.1588.1588,0,0,1,.14.1751l-.1583,1.4295A.1587.1587,0,0,1,30.6343,42.148Z"/><path class="cls-1" d="M29.3429,41.7008a.1586.1586,0,0,1-.1288-.2509l.8372-1.17a.1586.1586,0,1,1,.2578.1847l-.8371,1.1695A.1581.1581,0,0,1,29.3429,41.7008Z"/><path class="cls-1" d="M28.7085,41.225a.1586.1586,0,0,1-.1288-.2509l.8372-1.17a.1586.1586,0,1,1,.2578.1847l-.8371,1.17A.1581.1581,0,0,1,28.7085,41.225Z"/><path class="cls-1" d="M27.7893,40.3164a.1586.1586,0,0,1-.1035-.2788l1.09-.9383a.1585.1585,0,1,1,.2069.24l-1.09.9384A.1577.1577,0,0,1,27.7893,40.3164Z"/><path class="cls-1" d="M26.9218,39.4349a.1586.1586,0,0,1-.0859-.292l1.3231-.85a.1586.1586,0,0,1,.1715.2669l-1.3231.85A.1575.1575,0,0,1,26.9218,39.4349Z"/><path class="cls-1" d="M26.5513,38.5445a.1587.1587,0,0,1-.0662-.3029l1.43-.6549a.1586.1586,0,0,1,.1321.2884l-1.43.6549A.1576.1576,0,0,1,26.5513,38.5445Z"/><path class="cls-1" d="M26.2072,37.8437a.1587.1587,0,0,1-.0527-.3083l1.4833-.5221a.1586.1586,0,0,1,.1053.2992l-1.4833.5221A.1587.1587,0,0,1,26.2072,37.8437Z"/><path class="cls-1" d="M26.17,36.74a.1586.1586,0,0,1-.0216-.3156l1.5574-.2176a.1586.1586,0,1,1,.0438.3141l-1.5574.2176Z"/><path class="cls-1" d="M26.17,35.7881a.1586.1586,0,0,1-.0216-.3156l1.5574-.2176a.1586.1586,0,1,1,.0438.3141l-1.5574.2176Z"/><path class="cls-1" d="M31.5791,40.7625a3.7531,3.7531,0,0,1-.7253-.0623c-3.4212-.8144-3.2993-5.5057-3.2977-5.5531a.1564.1564,0,0,1,.164-.1529.1586.1586,0,0,1,.1531.1639c-.0016.0446-.1142,4.4793,3.05,5.2327a4.261,4.261,0,0,0,3.204-.7972c1.317-1.0248,2.041-2.8947,2.1519-5.5578l.0046-.1092,1.0553-.3519a.1587.1587,0,0,1,.1.301l-.8482.2827c-.1307,2.7056-.8953,4.6192-2.2734,5.6888A4.4475,4.4475,0,0,1,31.5791,40.7625Z"/><path class="cls-1" d="M7.8374,34.9354a.16.16,0,0,1-.04-.005l-1.01-.26a.1586.1586,0,0,1,.0791-.3071l1.01.26a.1586.1586,0,0,1-.04.3122Z"/><path class="cls-1" d="M7.8068,35.7906l-.0107,0-1.04-.0693a.1585.1585,0,1,1,.021-.3164l1.04.0693a.1586.1586,0,0,1-.01.3168Z"/><path class="cls-1" d="M7.32,38.1724a.1586.1586,0,0,1-.0511-.3088l.9869-.3359a.1586.1586,0,1,1,.1022.3l-.9869.3359A.16.16,0,0,1,7.32,38.1724Z"/><path class="cls-1" d="M7.0563,37.0482a.1586.1586,0,0,1-.0511-.3088l.9869-.3359a.1586.1586,0,1,1,.1022.3l-.9869.3359A.1606.1606,0,0,1,7.0563,37.0482Z"/><path class="cls-1" d="M9.2658,40.7085a.1586.1586,0,0,1-.12-.2623l.6817-.7887a.1586.1586,0,0,1,.24.2074l-.6817.7887A.1581.1581,0,0,1,9.2658,40.7085Z"/><path class="cls-1" d="M8.4967,40.195a.1587.1587,0,0,1-.12-.2623l.6817-.7888a.1586.1586,0,0,1,.24.2074l-.6818.7888A.1579.1579,0,0,1,8.4967,40.195Z"/><path class="cls-1" d="M10.1319,41.8735a.159.159,0,0,1-.153-.2007l.4216-1.5357a.1586.1586,0,1,1,.3059.0839l-.4216,1.5358A.1588.1588,0,0,1,10.1319,41.8735Z"/><path class="cls-1" d="M7.3683,39.3149a.1586.1586,0,0,1-.0766-.2976L8.6873,38.25a.1587.1587,0,0,1,.1529.2781l-1.3956.7673A.1574.1574,0,0,1,7.3683,39.3149Z"/><path class="cls-1" d="M11.0136,42.0921l-.0245-.0019a.1585.1585,0,0,1-.1325-.1809l.22-1.4213a.1586.1586,0,0,1,.3135.0484l-.22,1.4213A.1586.1586,0,0,1,11.0136,42.0921Z"/><path class="cls-1" d="M12.2765,42.1528a.1585.1585,0,0,1-.1581-.1488l-.0891-1.4354a.1586.1586,0,1,1,.3166-.02l.0891,1.4355a.1586.1586,0,0,1-.1485.1681Z"/><path class="cls-1" d="M13.227,42.1987a.1585.1585,0,0,1-.1581-.1487L12.98,40.6145a.1586.1586,0,0,1,.3166-.02l.0891,1.4355a.1586.1586,0,0,1-.1485.1681Z"/><path class="cls-1" d="M14.5385,41.8145a.1586.1586,0,0,1-.1335-.0727l-.78-1.2086a.1586.1586,0,1,1,.2666-.1719l.78,1.2086a.1587.1587,0,0,1-.1331.2446Z"/><path class="cls-1" d="M15.1951,41.37a.1584.1584,0,0,1-.1334-.0726l-.78-1.2086a.1586.1586,0,1,1,.2665-.1719l.78,1.2085a.1586.1586,0,0,1-.1331.2446Z"/><path class="cls-1" d="M16.1572,40.5067a.1582.1582,0,0,1-.1092-.0435l-1.0434-.99a.1586.1586,0,1,1,.2184-.23l1.0434.99a.1587.1587,0,0,1-.1092.2737Z"/><path class="cls-1" d="M17.0661,39.6681a.1579.1579,0,0,1-.0919-.03l-1.28-.9127a.1586.1586,0,0,1,.1841-.2583l1.2805.9127a.1586.1586,0,0,1-.0922.2878Z"/><path class="cls-1" d="M17.4792,38.7965a.1573.1573,0,0,1-.0728-.0177L16.01,38.0556a.1586.1586,0,1,1,.1459-.2817l1.3964.7232a.1586.1586,0,0,1-.0731.2994Z"/><path class="cls-1" d="M17.8567,38.1133a.1581.1581,0,0,1-.06-.0118L16.34,37.5083a.1586.1586,0,1,1,.12-.2938l1.4563.5932a.1587.1587,0,0,1-.06.3056Z"/><path class="cls-1" d="M17.9472,37.0123a.1582.1582,0,0,1-.03-.0027l-1.5451-.2925a.1586.1586,0,0,1,.059-.3117l1.5451.2925a.1586.1586,0,0,1-.0294.3144Z"/><path class="cls-1" d="M17.9932,36.0619a.1585.1585,0,0,1-.03-.0028l-1.5452-.2926a.1586.1586,0,1,1,.0591-.3116l1.5451.2926a.1586.1586,0,0,1-.0294.3144Z"/><path class="cls-1" d="M12.5649,40.7743a4.4791,4.4791,0,0,1-2.914-1.0518c-1.3248-1.1349-1.9961-3.0832-1.9959-5.7919l-.8335-.3234a.1586.1586,0,0,1,.1147-.2957l1.0371.4023-.0007.11c-.0178,2.6679.6163,4.5717,1.8847,5.6584a4.2463,4.2463,0,0,0,3.1619.9471c3.1932-.599,3.2949-5.034,3.2956-5.0787a.1586.1586,0,0,1,.1585-.1563h.0023a.1587.1587,0,0,1,.1564.1607c-.0007.0473-.1055,4.7391-3.5581,5.3868A3.4136,3.4136,0,0,1,12.5649,40.7743Z"/><ellipse class="cls-2" cx="37.3894" cy="42.6862" rx="2.6169" ry="1.586" transform="translate(-18.2727 53.7233) rotate(-60)"/><ellipse class="cls-3" cx="6.0655" cy="41.9725" rx="1.9825" ry="2.8548" transform="translate(-14.0122 4.6179) rotate(-20.0345)"/><path class="cls-2" d="M18.6546,24.3677a11.5036,11.5036,0,0,1-.4522-8.9286,10.3987,10.3987,0,0,1,1.5955-3.0127c.9467-1.2689,2.4111-4.365.3187-9.9286,0,0-.432-.5738.5631-2.4791a.0336.0336,0,0,1,.0622.0251,4.2765,4.2765,0,0,0-.3229,1.8024,2.6776,2.6776,0,0,0,.4758,1.11s1.737,3.1846,1.4773,5.1285c-.0265.1984-.0507.3967-.0639.5964a10.0651,10.0651,0,0,1-1.7306,5.06s-1.5933,1.4485-1.8731,5.3144c-.0225.3106-.06.6207-.11.9281a9.8979,9.8979,0,0,0,.7138,5.0183Z"/><path class="cls-2" d="M28.2008,25.5936a8.1326,8.1326,0,0,0,.32-6.3122,7.3509,7.3509,0,0,0-1.128-2.13c-.6693-.8971-1.7046-3.0859-.2253-7.0192,0,0,.3469-.4607-.55-2.03a4.1,4.1,0,0,1,.3363,1.57,1.8931,1.8931,0,0,1-.3363.7849s-1.2281,2.2514-1.0445,3.6257c.0188.14.0359.28.0452.4216a7.1167,7.1167,0,0,0,1.2235,3.5773s1.1264,1.024,1.3242,3.7571c.0159.22.0423.4388.0774.6562a6.9968,6.9968,0,0,1-.5046,3.5477Z"/></g></svg>