<svg xmlns="http://www.w3.org/2000/svg" width="157.6069" height="23.4053" viewBox="0 0 157.6069 23.4053"><defs><style>.cls-1{fill:#b07d62;}</style></defs><g id="Layer_3" data-name="Layer 3"><path class="cls-1" d="M8.2061,3.5439V7.6475a2.4214,2.4214,0,0,0-.7173-.1582,1.1189,1.1189,0,0,0-.833.3584,1.1948,1.1948,0,0,0-.3482.8642A2.3688,2.3688,0,0,0,6.687,9.81l.3272.5693A5.9641,5.9641,0,0,1,7.9,13.3535a4.7724,4.7724,0,0,1-1.4927,3.5537,5.0221,5.0221,0,0,1-3.644,1.4561,4.7782,4.7782,0,0,1-2.0464-.4746v-4.166a2.0841,2.0841,0,0,0,1.0864.39,1.3807,1.3807,0,0,0,.9336-.3213,1.0191,1.0191,0,0,0,.3745-.8066A4.1194,4.1194,0,0,0,2.51,11.6025a6.7765,6.7765,0,0,1-.96-3.375A4.8238,4.8238,0,0,1,3.001,4.72,4.6963,4.6963,0,0,1,6.4658,3.249,5.282,5.282,0,0,1,8.2061,3.5439Z"/><path class="cls-1" d="M20.67,18.0049H16.7251V12.0664q0-.9068-.7485-.9072-.7383,0-.7383.9072v5.9385H11.2935V12.14a4.7956,4.7956,0,0,1,1.36-3.4648,4.4606,4.4606,0,0,1,3.333-1.4082A4.4721,4.4721,0,0,1,19.605,8.9023,5.39,5.39,0,0,1,20.67,12.457Z"/><path class="cls-1" d="M30.0229,14.06v4.082a5.1776,5.1776,0,0,1-.8862.085,5.403,5.403,0,0,1-3.9551-1.5616,5.2717,5.2717,0,0,1-1.5825-3.913A5.446,5.446,0,0,1,29.084,7.2783a5.3932,5.3932,0,0,1,4.0239,1.4922A5.5529,5.5529,0,0,1,34.58,12.8467v5.1582H30.6348V13.1318a2.0378,2.0378,0,0,0-.4063-1.3291,1.3361,1.3361,0,0,0-1.0918-.4951,1.5526,1.5526,0,0,0-1.1177,2.6055,1.3957,1.3957,0,0,0,1.044.4219A1.7845,1.7845,0,0,0,30.0229,14.06Z"/><path class="cls-1" d="M44.5435,13.1631l3.913-.1475a5.5663,5.5663,0,0,1-1.6982,3.7451,5.1835,5.1835,0,0,1-3.7231,1.4659,5.3,5.3,0,0,1-3.9185-1.6143,5.4063,5.4063,0,0,1-1.5981-3.9551A5.141,5.141,0,0,1,39.1323,8.85a5.4661,5.4661,0,0,1,9.23,2.8369l-3.9975.1485a1.5838,1.5838,0,0,0-1.3081-.6758,1.4819,1.4819,0,0,0-1.1075.4433,1.5342,1.5342,0,0,0-.4326,1.1182,1.5678,1.5678,0,0,0,.459,1.1494,1.543,1.543,0,0,0,1.1445.4649A1.4877,1.4877,0,0,0,44.5435,13.1631Z"/><path class="cls-1" d="M55.3306,3.6074V18.0049H51.3857V3.6074ZM61.374,7.4893l-1.93,3.8281,2.8692,6.6875H57.9463L55.478,11.1377l1.793-3.6484Z"/><path class="cls-1" d="M84.021,7.7422V18.0049H79.7388V7.7422h-3.28V3.6074h10.833V7.7422Z"/><path class="cls-1" d="M93.7319,7.4893V18.0049H89.7866V7.4893ZM91.77,2.7949a1.9306,1.9306,0,0,1,1.3867.5645,1.7922,1.7922,0,0,1,.586,1.3349,1.7823,1.7823,0,0,1-.5537,1.35,2.1725,2.1725,0,0,1-2.8379,0,1.782,1.782,0,0,1-.5537-1.35,1.7925,1.7925,0,0,1,.5859-1.3349A1.9306,1.9306,0,0,1,91.77,2.7949Z"/><path class="cls-1" d="M111.6919,18.0049h-3.9453V12.33a2.1019,2.1019,0,0,0-.1367-.9072.5156.5156,0,0,0-.4961-.253q-.6636,0-.6641,1.1709v5.6641h-3.9453V12.33a2.0275,2.0275,0,0,0-.1416-.9072.5289.5289,0,0,0-.502-.253q-.6532,0-.6533,1.1709v5.6641H97.2622V11.5283a4.1849,4.1849,0,0,1,1.1924-3.0117,3.8585,3.8585,0,0,1,2.89-1.2383,4.231,4.231,0,0,1,3.1436,1.4766,4.555,4.555,0,0,1,3.1006-1.4766,3.9121,3.9121,0,0,1,3.165,1.4336,4.9562,4.9562,0,0,1,.9385,3.26Z"/><path class="cls-1" d="M125.5483,13.3848h-5.98a2.88,2.88,0,0,1-.1367-.833,2.9091,2.9091,0,0,1,.1894-1.0332h2.0039a1.24,1.24,0,0,0-1.3183-1.1719,1.4325,1.4325,0,0,0-1.2022.6279,2.6338,2.6338,0,0,0-.4639,1.6084,2.7973,2.7973,0,0,0,.4483,1.6563,1.3782,1.3782,0,0,0,1.1758.6328,1.5721,1.5721,0,0,0,1.1386-.59l2.2471,2.6992a5.5154,5.5154,0,0,1-3.4912,1.2344,5.3779,5.3779,0,0,1-3.9346-1.5722,5.2475,5.2475,0,0,1-1.5928-3.8916A5.28,5.28,0,0,1,116.24,8.85a5.4,5.4,0,0,1,3.95-1.5928,5.3135,5.3135,0,0,1,5.4,5.39Q125.59,12.8795,125.5483,13.3848Z"/><path class="cls-1" d="M131.894,13.2793a2.4183,2.4183,0,0,1,1.7774.749,2.4441,2.4441,0,0,1,.7441,1.7832,2.37,2.37,0,0,1-.7383,1.7559,2.46,2.46,0,0,1-1.7832.7226,2.51,2.51,0,0,1-1.7617-4.2773A2.3929,2.3929,0,0,1,131.894,13.2793ZM133.93,3.6074l-.0742,8.9336h-3.7442L129.89,3.6074Z"/></g></svg>